/* XPM */
static char * buttonpressed_xpm[] = {
"10 10 4 1",
" 	c None",
".	c #000000",
"+	c #303030",
"@	c #fe8019",
"..........",
".++++++++.",
".++++++++.",
".++++++++.",
".++++++++.",
".++@@@@++.",
".++@@@@++.",
".++++++++.",
".++++++++.",
".........."};
